<svg xmlns="http://www.w3.org/2000/svg" xmlns:xlink="http://www.w3.org/1999/xlink" width="135" height="58" viewBox="0 0 135 58">
    <defs>
        <path id="a" d="M72.489 4.327V46.18a4.327 4.327 0 0 1-4.327 4.327H4.327A4.327 4.327 0 0 1 0 46.18V4.327A4.327 4.327 0 0 1 4.327 0h63.835a4.327 4.327 0 0 1 4.327 4.327z"/>
    </defs>
    <g fill="none" fill-rule="evenodd">
        <g transform="translate(29 3.493)">
            <mask id="b" fill="#fff">
                <use xlink:href="#a"/>
            </mask>
            <use fill="#8DF387" xlink:href="#a"/>
            <path fill="#5EC6EC" d="M0 50.507V0l36.244 20.648zM72.489 50.507L36.244 20.598 72.49 0z" mask="url(#b)"/>
            <path fill="#85D9F7" d="M0 50.507l36.128-30.993L72.49 50.507z" mask="url(#b)"/>
            <path fill="#44B7E0" d="M39.86 27.194L72.488.116H0l32.256 27.057a5.935 5.935 0 0 0 7.603.02z" mask="url(#b)"/>
            <path stroke="#1A789B" stroke-width="3.22" d="M76.512 4.327V46.18a5.937 5.937 0 0 1-5.938 5.937H6.74A5.937 5.937 0 0 1 .803 46.18V4.327A5.937 5.937 0 0 1 6.74-1.61h63.834a5.937 5.937 0 0 1 5.938 5.937z"/>
        </g>
        <g transform="translate(-1.593 15)">
            <ellipse cx="119.17" cy="3.253" fill="#EF6561" rx="3.17" ry="3.253"/>
            <path fill="#EF6561" d="M15.971 1.086l5.211 5.033-5.957 2.162z"/>
            <path fill="#43AE3C" d="M18.754 24.007l4.44 1.698-1.755 4.556L17 28.562z"/>
            <path fill="#44B7E0" d="M115 24.182l3.533-3.171 3.276 3.626-3.533 3.172z"/>
            <path fill="#43AE3C" fill-rule="nonzero" d="M124.15 17.637l2.273-1.79a4.053 4.053 0 0 1 3.022-.84l.52.067a5.737 5.737 0 0 0 5.27-2.194l1.358-1.76-1.704-1.348-1.358 1.76a3.6 3.6 0 0 1-3.307 1.377l-.52-.066a6.187 6.187 0 0 0-4.613 1.28l-2.272 1.79 1.331 1.724z"/>
            <path fill="#FC941A" fill-rule="nonzero" d="M15.706 16.256l.101 2.184-2.905.065a6.43 6.43 0 0 1-4.538-1.756l-.39-.366a3.705 3.705 0 0 0-3.518-.89l-2.135.59-.625-2.106 2.135-.592c1.964-.544 4.092-.005 5.607 1.419l.39.367a4.213 4.213 0 0 0 2.973 1.15l2.905-.065z"/>
        </g>
    </g>
</svg>
